HIERARCHY
ROOT Hips
{
	OFFSET -0.001795 -0.223333 0.028219
	CHANNELS 6 Xposition Yposition Zposition Zrotation Yrotation Xrotation 
	JOINT LeftUpLeg
	{
		OFFSET 0.069520 -0.091406 -0.006815
		CHANNELS 3 Zrotation Yrotation Xrotation
		JOINT LeftLeg
		{
			OFFSET 0.034277 -0.375199 -0.004496
			CHANNELS 3 Zrotation Yrotation Xrotation
			JOINT LeftFoot
			{
				OFFSET -0.013596 -0.397961 -0.043693
				CHANNELS 3 Zrotation Yrotation Xrotation
				JOINT LeftToe
				{
					OFFSET 0.026358 -0.055791 0.119288
					CHANNELS 3 Zrotation Yrotation Xrotation
					End Site
					{
						OFFSET 0.000000 0.000000 0.000000
					}
				}
			}
		}
	}
	JOINT RightUpLeg
	{
		OFFSET -0.067670 -0.090522 -0.004320
		CHANNELS 3 Zrotation Yrotation Xrotation
		JOINT RightLeg
		{
			OFFSET -0.038290 -0.382569 -0.008850
			CHANNELS 3 Zrotation Yrotation Xrotation
			JOINT RightFoot
			{
				OFFSET 0.015774 -0.398415 -0.042312
				CHANNELS 3 Zrotation Yrotation Xrotation
				JOINT RightToe
				{
					OFFSET -0.025372 -0.048144 0.123348
					CHANNELS 3 Zrotation Yrotation Xrotation
					End Site
					{
						OFFSET 0.000000 0.000000 0.000000
					}
				}
			}
		}
	}
	JOINT Spine
	{
		OFFSET -0.002533 0.108963 -0.026696
		CHANNELS 3 Zrotation Yrotation Xrotation
		JOINT Spine1
		{
			OFFSET 0.005487 0.135180 0.001092
			CHANNELS 3 Zrotation Yrotation Xrotation
			JOINT Spine2
			{
				OFFSET 0.001457 0.052922 0.025425
				CHANNELS 3 Zrotation Yrotation Xrotation
				JOINT Neck
				{
					OFFSET -0.002778 0.213870 -0.042857
					CHANNELS 3 Zrotation Yrotation Xrotation
					JOINT Head
					{
						OFFSET 0.005152 0.064970 0.051349
						CHANNELS 3 Zrotation Yrotation Xrotation
						End Site
						{
							OFFSET 0.000000 0.000000 0.000000
						}
					}
				}
				JOINT LeftShoulder
				{
					OFFSET 0.078845 0.121749 -0.034090
					CHANNELS 3 Zrotation Yrotation Xrotation
					JOINT LeftArm
					{
						OFFSET 0.090977 0.030469 -0.008868
						CHANNELS 3 Zrotation Yrotation Xrotation
						JOINT LeftForeArm
						{
							OFFSET 0.259612 -0.012772 -0.027456
							CHANNELS 3 Zrotation Yrotation Xrotation
							JOINT LeftHand
							{
								OFFSET 0.249234 0.008986 -0.001171
								CHANNELS 3 Zrotation Yrotation Xrotation
								End Site
								{
									OFFSET 0.000000 0.000000 0.000000
								}
							}
						}
					}
				}
				JOINT RightShoulder
				{
					OFFSET -0.081759 0.118833 -0.038615
					CHANNELS 3 Zrotation Yrotation Xrotation
					JOINT RightArm
					{
						OFFSET -0.096012 0.032551 -0.009143
						CHANNELS 3 Zrotation Yrotation Xrotation
						JOINT RightForeArm
						{
							OFFSET -0.253742 -0.013329 -0.021401
							CHANNELS 3 Zrotation Yrotation Xrotation
							JOINT RightHand
							{
								OFFSET -0.255298 0.007772 -0.005559
								CHANNELS 3 Zrotation Yrotation Xrotation
								End Site
								{
									OFFSET 0.000000 0.000000 0.000000
								}
							}
						}
					}
				}
			}
		}
	}
}
MOTION
Frames: 16
Frame Time: 0.050000
0.017306 0.938417 0.038943 -1.829079 1.223835 1.845862 6.308556 0.091253 6.390802 -0.377068 0.022125 0.577157 4.451562 10.729207 6.026525 0.000000 0.000000 0.000000 -4.807958 0.174769 -0.921610 -6.870202 1.222563 4.863480 3.589347 5.978634 4.973337 0.000000 0.000000 0.000000 4.968510 2.423364 -30.708611 -0.271917 0.384921 -9.649668 -10.552122 5.803662 -0.219931 6.518925 -2.395644 -12.875564 0.000000 0.000000 0.000000 18.495745 10.120999 1.827671 -68.751995 -27.098792 5.250007 125.820810 -44.804672 -77.043699 0.000000 0.000000 0.000000 -15.765964 -15.870231 -3.209747 71.045869 9.690446 3.383278 -138.734092 28.603197 -54.550576 0.000000 0.000000 0.000000 
0.016521 0.937727 0.042124 -1.807442 1.749698 2.179989 6.358155 0.065221 6.259731 -0.507166 0.028562 0.820826 4.401813 10.616713 5.863842 0.000000 0.000000 0.000000 -5.007113 0.177803 -0.936770 -6.586054 1.183144 4.892666 3.337883 5.672696 4.578839 0.000000 0.000000 0.000000 4.482867 2.303270 -31.679945 0.118486 0.230046 -9.093425 -10.828328 4.916659 -0.742718 6.194128 -2.381459 -12.012331 0.000000 0.000000 0.000000 19.820970 9.292763 2.214971 -69.756650 -32.021041 8.780996 124.696049 -39.133242 -67.678914 0.000000 0.000000 0.000000 -16.915452 -15.798420 -2.879967 71.965904 10.646838 4.035252 -138.375538 27.741050 -52.980573 0.000000 0.000000 0.000000 
0.014814 0.939083 0.045117 -1.940372 1.767170 2.314708 6.253269 0.071109 6.275403 -0.370001 0.003973 1.107748 4.583986 10.931488 5.821232 0.000000 0.000000 0.000000 -4.690952 0.170457 -0.871913 -6.960633 1.245892 4.957614 3.448783 5.744459 4.896557 0.000000 0.000000 0.000000 4.158579 2.228391 -31.909802 0.213608 0.185520 -8.814672 -10.288980 3.975061 -1.508279 5.686445 -2.297876 -11.016001 0.000000 0.000000 0.000000 20.473178 8.415539 2.337558 -70.979743 -36.476308 12.598410 124.380436 -34.557243 -60.280851 0.000000 0.000000 0.000000 -18.134135 -15.690944 -2.414050 73.748973 10.584122 3.872272 -139.055644 28.106054 -55.451449 0.000000 0.000000 0.000000 
0.012596 0.939100 0.047781 -2.189915 2.163306 2.568536 6.947231 0.001378 6.282911 -0.796210 0.050175 1.177203 4.514095 10.908277 6.239660 0.000000 0.000000 0.000000 -4.530765 0.166025 -0.845241 -6.647989 1.167707 4.631495 3.601642 6.201837 4.782888 0.000000 0.000000 0.000000 3.379634 1.967263 -31.921847 0.651986 0.019219 -8.666484 -10.207891 2.974290 -2.313308 5.435447 -2.431577 -9.553392 0.000000 0.000000 0.000000 21.536430 7.329643 2.606337 -72.534055 -39.823054 15.824816 123.650572 -30.601460 -53.381420 0.000000 0.000000 0.000000 -18.556610 -15.599058 -2.125398 75.427013 8.977238 2.620187 -139.867982 29.444585 -59.885239 0.000000 0.000000 0.000000 
0.010249 0.938707 0.049390 -2.184106 2.251880 2.832708 7.192382 -0.030037 6.089391 -1.019173 0.073078 1.266702 4.620369 11.023903 5.907501 0.000000 0.000000 0.000000 -4.529444 0.178967 -1.015033 -6.457172 1.157415 4.828012 3.567930 6.479283 4.209223 0.000000 0.000000 0.000000 3.028929 1.868781 -32.077449 0.947336 -0.115902 -8.101205 -10.185332 2.067599 -2.726466 5.371934 -2.525649 -9.009991 0.000000 0.000000 0.000000 22.452838 6.886742 2.696656 -75.044060 -42.074086 18.783308 122.952159 -28.848370 -49.660419 0.000000 0.000000 0.000000 -18.681686 -15.405738 -1.881001 76.772873 8.004008 1.630437 -141.328892 31.389793 -66.239308 0.000000 0.000000 0.000000 
0.008532 0.938723 0.049889 -1.925932 2.164590 3.243092 7.204642 -0.045806 5.659070 -1.319762 0.097404 1.706204 4.640324 10.948136 5.419443 0.000000 0.000000 0.000000 -4.896105 0.239139 -1.839799 -6.290582 1.171774 5.270358 3.318721 6.282413 3.555141 0.000000 0.000000 0.000000 2.675684 1.741178 -31.297866 0.766711 -0.029169 -8.560266 -9.668839 1.728646 -2.494663 5.634233 -2.957746 -7.741108 0.000000 0.000000 0.000000 22.789460 6.040588 2.732402 -76.540069 -43.284928 20.584381 122.269471 -27.244568 -46.337142 0.000000 0.000000 0.000000 -18.404022 -15.623089 -1.875662 78.183471 6.820792 0.516215 -143.725484 33.302149 -73.691400 0.000000 0.000000 0.000000 
0.007519 0.938856 0.049346 -1.780421 2.423777 3.538585 7.315072 -0.080961 4.970839 -1.714047 0.135461 2.070718 4.554309 10.672879 4.853055 0.000000 0.000000 0.000000 -4.956193 0.270679 -2.359473 -6.341323 1.224216 5.753341 3.317235 6.311832 3.527444 0.000000 0.000000 0.000000 2.226464 1.562575 -30.665366 0.896269 -0.075423 -8.538459 -9.509115 1.227930 -2.055719 5.416075 -2.861112 -7.594976 0.000000 0.000000 0.000000 23.128291 5.517473 2.731025 -78.008208 -43.910591 21.894135 120.255405 -27.034848 -44.127705 0.000000 0.000000 0.000000 -17.942650 -15.715179 -1.916827 78.743826 7.020350 0.402447 -145.037253 35.666866 -80.254799 0.000000 0.000000 0.000000 
0.007190 0.939085 0.048390 -1.449385 2.283592 3.849928 7.174579 -0.080710 4.615662 -2.225600 0.195343 2.241228 4.400408 10.537772 5.482900 0.000000 0.000000 0.000000 -5.272853 0.296957 -2.711520 -6.765571 1.311592 5.980766 3.522768 6.585277 3.868719 0.000000 0.000000 0.000000 2.327783 1.565380 -29.921372 0.677886 -0.008056 -8.119007 -9.351177 1.320063 -1.937975 5.738000 -3.209814 -6.904591 0.000000 0.000000 0.000000 23.265763 5.329460 2.758291 -78.763312 -44.702520 22.886671 118.526831 -26.850031 -42.496040 0.000000 0.000000 0.000000 -17.472134 -15.358331 -1.945316 79.044706 8.160598 1.218352 -145.389179 38.100924 -85.116182 0.000000 0.000000 0.000000 
0.007398 0.939141 0.047772 -1.236252 2.325513 4.010890 7.131036 -0.088433 4.312515 -2.500254 0.226381 2.408518 3.869449 9.459642 4.988302 0.000000 0.000000 0.000000 -5.440960 0.321794 -3.142659 -7.050740 1.410513 6.526096 3.378259 6.125217 4.063358 0.000000 0.000000 0.000000 2.625732 1.580125 -28.916747 0.518463 0.057994 -8.189776 -9.532108 1.433728 -1.550325 6.108679 -3.742897 -5.451096 0.000000 0.000000 0.000000 21.654124 4.671731 2.571982 -76.665747 -44.859623 22.163537 117.841129 -27.714268 -43.390020 0.000000 0.000000 0.000000 -16.097428 -14.857439 -2.161357 78.227057 9.384710 2.076975 -145.609545 39.481781 -87.524619 0.000000 0.000000 0.000000 
0.007955 0.939362 0.047902 -0.827576 2.351154 4.410968 6.962837 -0.091291 4.025290 -2.987336 0.284151 2.628247 3.724235 9.389206 5.744283 0.000000 0.000000 0.000000 -5.964638 0.350485 -3.636406 -7.119691 1.453632 6.862815 3.262804 5.716545 4.294779 0.000000 0.000000 0.000000 2.750328 1.592253 -28.719778 0.419614 0.061845 -7.151448 -9.685774 1.394556 -1.815820 6.913591 -4.467763 -4.707532 0.000000 0.000000 0.000000 21.467699 4.083955 2.634747 -74.516967 -46.541303 22.704873 114.670408 -26.183374 -39.225748 0.000000 0.000000 0.000000 -15.847952 -14.104741 -2.050849 77.952367 11.300759 3.493370 -143.925664 40.121841 -85.911237 0.000000 0.000000 0.000000 
0.008751 0.939521 0.048940 -0.468619 2.524630 4.814967 6.594808 -0.082472 3.811938 -3.135753 0.299609 2.790311 3.533473 9.028668 5.656510 0.000000 0.000000 0.000000 -6.573091 0.371710 -4.120260 -7.268987 1.502015 7.116223 3.486392 5.877861 4.931947 0.000000 0.000000 0.000000 2.759105 1.558591 -28.453778 0.463978 0.044105 -7.075762 -9.405626 1.231135 -1.322024 7.011261 -4.660195 -4.211154 0.000000 0.000000 0.000000 21.275371 3.575052 2.603310 -70.681736 -49.096144 23.188473 111.407535 -23.689091 -33.843779 0.000000 0.000000 0.000000 -15.658292 -13.689610 -1.988677 76.880431 13.076438 4.557305 -143.127190 40.795035 -85.660480 0.000000 0.000000 0.000000 
0.009448 0.939895 0.050783 -0.262752 3.137316 5.174208 6.509042 -0.103464 3.503592 -3.344186 0.320104 2.769600 3.301801 8.677869 5.819124 0.000000 0.000000 0.000000 -6.918867 0.360702 -3.999846 -7.144273 1.496536 7.294100 3.536321 5.866619 5.236171 0.000000 0.000000 0.000000 2.351280 1.405018 -28.494116 0.688334 -0.076102 -6.061070 -8.980964 0.510080 -1.730202 6.979319 -4.876713 -3.028206 0.000000 0.000000 0.000000 22.473526 2.979219 2.786205 -67.680413 -52.257700 24.461839 108.692697 -20.908587 -28.737467 0.000000 0.000000 0.000000 -16.348156 -12.794216 -1.586533 77.106550 14.348220 5.335953 -143.166493 40.930407 -86.301753 0.000000 0.000000 0.000000 
0.009874 0.940028 0.053424 -0.385453 3.495451 5.680635 6.628018 -0.126737 3.504220 -3.264007 0.310558 2.233673 3.270101 8.706732 6.088733 0.000000 0.000000 0.000000 -6.902153 0.372014 -4.199522 -7.157154 1.470711 7.026672 3.644919 6.001378 5.497231 0.000000 0.000000 0.000000 2.282942 1.360930 -28.759078 1.705459 -0.492329 -6.046611 -8.905255 0.243570 -1.816437 7.334601 -5.310117 -2.244417 0.000000 0.000000 0.000000 23.610685 2.833370 2.963545 -62.237685 -54.774063 23.622065 105.727399 -18.270431 -24.231017 0.000000 0.000000 0.000000 -16.839763 -12.658683 -1.452005 76.927654 13.573167 4.724581 -143.910918 42.529128 -90.103783 0.000000 0.000000 0.000000 
0.009972 0.939965 0.056430 -0.754784 3.976247 6.011917 7.108269 -0.168304 3.836221 -3.373688 0.325872 1.209051 3.590272 9.609297 7.299950 0.000000 0.000000 0.000000 -6.683805 0.378514 -4.324907 -6.786625 1.384814 6.790439 3.671699 5.837112 5.977996 0.000000 0.000000 0.000000 1.965207 1.244725 -28.948850 2.847326 -0.971989 -5.829626 -8.326627 -0.674911 -1.926183 7.918187 -5.973117 -1.254816 0.000000 0.000000 0.000000 25.274198 2.539033 3.063475 -56.689695 -55.302224 21.593828 104.067460 -15.565576 -20.124759 0.000000 0.000000 0.000000 -17.760690 -12.974854 -1.183182 78.133886 11.829395 3.173088 -147.655006 43.822583 -98.744211 0.000000 0.000000 0.000000 
0.009782 0.940212 0.059442 -1.166205 4.055623 6.363811 7.438322 -0.199887 3.950176 -3.214909 0.312448 0.567840 3.732059 9.909807 7.522145 0.000000 0.000000 0.000000 -6.271744 0.402487 -4.615045 -6.405960 1.296275 6.523730 3.661079 5.740452 6.129255 0.000000 0.000000 0.000000 1.683366 1.167450 -28.792352 4.211444 -1.566308 -5.501435 -7.571324 -1.373939 -2.436212 8.531051 -6.768092 0.277412 0.000000 0.000000 0.000000 25.864495 2.583097 2.989108 -48.861308 -53.555200 17.302364 104.242935 -12.741523 -16.628053 0.000000 0.000000 0.000000 -18.191618 -14.393374 -1.160468 79.063438 8.239027 0.151030 -154.761526 44.680271 -113.321812 0.000000 0.000000 0.000000 
0.009487 0.940208 0.062300 -1.299213 3.856588 7.208225 7.512224 -0.228148 3.409741 -3.023872 0.296570 0.183518 4.311226 11.000429 8.016549 0.000000 0.000000 0.000000 -6.209739 0.454653 -5.365406 -6.061281 1.227971 6.423927 3.796243 5.999617 6.192483 0.000000 0.000000 0.000000 1.590057 1.154695 -28.462956 4.752620 -1.765717 -5.846913 -6.736994 -1.851273 -2.648247 9.145398 -7.261482 0.385491 0.000000 0.000000 0.000000 27.095409 3.285156 2.933839 -43.724582 -50.551309 13.958918 104.967388 -11.600898 -15.166656 0.000000 0.000000 0.000000 -19.245373 -16.211345 -1.067260 79.624257 5.124020 -2.573258 -159.720576 43.581598 -122.204325 0.000000 0.000000 0.000000 
